<?xml version="1.0" encoding="utf-8"?>
<!-- Generator: Adobe Illustrator 16.0.0, SVG Export Plug-In . SVG Version: 6.00 Build 0)  -->
<!DOCTYPE svg PUBLIC "-//W3C//DTD SVG 1.1//EN" "http://www.w3.org/Graphics/SVG/1.1/DTD/svg11.dtd">
<svg version="1.1" id="Capa_1" xmlns="http://www.w3.org/2000/svg" xmlns:xlink="http://www.w3.org/1999/xlink" x="0px" y="0px"
	 width="24px" height="24px" viewBox="0 0 24 24" enable-background="new 0 0 24 24" xml:space="preserve">
<circle fill="#FFFFFF" stroke="#FFFFFF" stroke-miterlimit="10" cx="12.001" cy="10.25" r="9"/>
<g id="Capa_1_1_" display="none">
	<circle display="inline" fill="#9A7D22" cx="12" cy="10.4" r="10"/>
</g>
<g id="Capa_3">
	<path fill="#F39F7E" d="M11.998,0.001L11.998,0.001C6.338-0.084,1.682,4.435,1.597,10.094c0,0.044,0,0.089,0,0.133
		c0,3.126,1.311,5.527,3.563,7.753c2.972,2.929,5.813,5.599,5.813,5.599c0.311,0.3,0.737,0.45,1.167,0.412v-0.412l0,0V24
		c0.368-0.079,0.715-0.232,1.021-0.455c0,0,2.741-2.74,5.696-5.652c2.254-2.221,3.547-4.533,3.547-7.677
		C22.377,4.547,17.76-0.027,12.091,0C12.06,0,12.029,0,11.998,0.001z M11.998,19c-4.946,0.003-8.957-4.004-8.959-8.949
		c-0.003-4.945,4.003-8.956,8.948-8.959c4.945-0.002,8.957,4.003,8.958,8.949c0,0.003,0,0.007,0,0.011
		C20.941,14.995,16.936,19,11.992,19H11.998z"/>
</g>
<title>semaforo</title>
<g>
	<path fill="#F39F7E" d="M14.364,17.369H9.636c-0.795-0.003-1.438-0.646-1.441-1.441V3.81c0.002-0.795,0.646-1.438,1.441-1.441
		h4.729c0.795,0.002,1.438,0.646,1.44,1.441v12.115C15.805,16.72,15.16,17.366,14.364,17.369z M9.636,3.068
		c-0.408,0-0.739,0.33-0.739,0.738l0,0v12.119c0,0.407,0.331,0.738,0.739,0.738l0,0h4.729c0.407,0.008,0.745-0.314,0.755-0.722
		c0-0.006,0-0.013,0-0.017V3.81c0-0.408-0.331-0.739-0.739-0.739l0,0L9.636,3.068z"/>
	<path fill="#F39F7E" d="M12,4.095c0.813,0,1.473,0.66,1.473,1.473S12.813,7.042,12,7.042s-1.473-0.66-1.473-1.473l0,0
		C10.527,4.755,11.187,4.095,12,4.095 M12,3.565c-1.108,0-2.007,0.898-2.007,2.007S10.892,7.579,12,7.579s2.007-0.898,2.007-2.007
		S13.108,3.565,12,3.565z"/>
	<path fill="#F39F7E" d="M11.25,5.416c-0.089-0.002-0.159-0.075-0.158-0.164c0-0.024,0.006-0.048,0.017-0.069
		c0.161-0.332,0.502-0.538,0.871-0.526c0.088,0.014,0.147,0.096,0.133,0.184c-0.011,0.068-0.064,0.123-0.133,0.134
		c-0.251-0.014-0.485,0.128-0.59,0.357C11.363,5.384,11.309,5.416,11.25,5.416z"/>
	<path fill="#F39F7E" d="M12,8.394c0.813,0,1.473,0.66,1.473,1.473c0,0.814-0.659,1.474-1.473,1.474s-1.473-0.66-1.473-1.474l0,0
		C10.527,9.054,11.187,8.394,12,8.394 M12,7.864c-1.108,0-2.007,0.898-2.007,2.007c0,1.108,0.898,2.007,2.007,2.007
		s2.007-0.899,2.007-2.007C14.007,8.763,13.108,7.864,12,7.864z"/>
	<path fill="#F39F7E" d="M11.25,9.714c-0.089-0.001-0.159-0.075-0.158-0.163c0-0.024,0.006-0.048,0.017-0.069
		c0.167-0.327,0.509-0.526,0.875-0.51c0.087,0.014,0.147,0.096,0.133,0.184c-0.011,0.068-0.065,0.122-0.133,0.133
		c-0.251-0.013-0.485,0.128-0.59,0.357C11.362,9.694,11.307,9.72,11.25,9.714z"/>
	<path fill="#F39F7E" d="M12,12.698c0.813,0,1.473,0.658,1.473,1.473c0,0.813-0.659,1.473-1.473,1.473s-1.473-0.66-1.473-1.473l0,0
		C10.527,13.356,11.187,12.698,12,12.698 M12,12.167c-1.108,0-2.007,0.899-2.007,2.007c0,1.108,0.898,2.007,2.007,2.007
		s2.007-0.898,2.007-2.007C14.007,13.066,13.108,12.167,12,12.167z"/>
	<path fill="#F39F7E" d="M11.25,14.018c-0.089,0-0.16-0.072-0.16-0.162c0-0.022,0.006-0.046,0.016-0.066
		c0.161-0.332,0.502-0.538,0.871-0.526c0.087,0.015,0.147,0.097,0.133,0.185c-0.011,0.068-0.065,0.121-0.133,0.134
		c-0.251-0.014-0.485,0.128-0.59,0.356C11.358,13.986,11.306,14.018,11.25,14.018z"/>
</g>
</svg>
