<?xml version="1.0" encoding="utf-8"?>
<!-- Generator: Adobe Illustrator 26.0.1, SVG Export Plug-In . SVG Version: 6.00 Build 0)  -->
<svg version="1.1" id="Capa_1" xmlns="http://www.w3.org/2000/svg" xmlns:xlink="http://www.w3.org/1999/xlink" x="0px" y="0px"
	 viewBox="0 0 409.44 141.64" style="enable-background:new 0 0 409.44 141.64;" xml:space="preserve">
<style type="text/css">
	.st0{fill:#4A4A49;}
	.st1{fill:#5675B8;}
	.st2{fill:#C7D433;}
	.st3{fill:#90C156;}
</style>
<g>
	<path class="st0" d="M244.48,84.83c0.04-0.05,0.07-0.11,0.1-0.16c0.04-0.07,0.08-0.13,0.12-0.2c0.03-0.06,0.07-0.12,0.1-0.18
		c0.03-0.07,0.07-0.14,0.1-0.2c0.03-0.06,0.06-0.12,0.08-0.18c0.03-0.08,0.06-0.16,0.09-0.24c0.09-0.25,0.15-0.52,0.2-0.79
		l7.68-38.58l-0.02,0c0.05-0.27,0.07-0.54,0.07-0.82c0-2.66-2.15-4.81-4.81-4.81c-2.52,0-4.59,1.94-4.79,4.42l-5,25.36l-20.75-34.5
		l-0.01,0.01c-0.84-1.38-2.36-2.31-4.1-2.31c-2.66,0-4.81,2.15-4.81,4.81c0,1,0.31,1.93,0.83,2.7l26.61,44.97
		c0.14,0.3,0.31,0.58,0.51,0.85c0.01,0.01,0.02,0.03,0.03,0.04c0.18,0.24,0.39,0.47,0.62,0.67c0.02,0.02,0.05,0.04,0.07,0.06
		c0.06,0.05,0.13,0.11,0.19,0.16c0.04,0.03,0.08,0.06,0.13,0.09c0.06,0.04,0.12,0.09,0.19,0.13c0.1,0.06,0.2,0.13,0.3,0.18
		c0.05,0.03,0.1,0.05,0.15,0.08c0.07,0.04,0.15,0.07,0.22,0.11c0.05,0.02,0.1,0.05,0.16,0.07c0.09,0.04,0.19,0.07,0.28,0.1
		c0.04,0.01,0.07,0.03,0.11,0.04c0.13,0.04,0.26,0.07,0.4,0.1c0.04,0.01,0.08,0.01,0.12,0.02c0.11,0.02,0.21,0.04,0.32,0.05
		c0.04,0,0.08,0.01,0.13,0.01c0.15,0.01,0.29,0.02,0.44,0.02c0,0,0,0,0,0l0,0h0c0,0,0,0,0,0c0.15,0,0.3-0.01,0.45-0.02
		c0.05,0,0.09-0.01,0.14-0.02c0.1-0.01,0.2-0.03,0.3-0.05c0.05-0.01,0.11-0.02,0.16-0.03c0.09-0.02,0.19-0.05,0.28-0.07
		c0.05-0.01,0.1-0.03,0.15-0.04c0.1-0.03,0.21-0.07,0.31-0.11c0.03-0.01,0.07-0.02,0.1-0.04c0.13-0.06,0.26-0.12,0.38-0.18
		c0.04-0.02,0.08-0.04,0.11-0.07c0.08-0.05,0.17-0.1,0.25-0.15c0.05-0.03,0.09-0.06,0.14-0.1c0.07-0.05,0.14-0.1,0.2-0.15
		c0.05-0.04,0.09-0.07,0.14-0.11c0.07-0.06,0.13-0.11,0.19-0.17c0.04-0.04,0.08-0.08,0.12-0.12c0.08-0.08,0.16-0.17,0.24-0.26
		c0.04-0.05,0.08-0.1,0.12-0.15C244.37,84.98,244.42,84.91,244.48,84.83z"/>
	<path class="st0" d="M258.83,56.43c0-2.71,2.19-4.91,4.91-4.91c2.71,0,4.91,2.2,4.91,4.91V82c0,2.71-2.2,4.91-4.91,4.91
		c-2.71,0-4.91-2.2-4.91-4.91V56.43z M268.65,43.91c0,2.71-2.2,4.91-4.91,4.91s-4.91-2.2-4.91-4.91s2.2-4.91,4.91-4.91
		S268.65,41.2,268.65,43.91z"/>
	<path class="st0" d="M276.72,43.91c0-2.71,2.19-4.91,4.91-4.91c2.71,0,4.91,2.19,4.91,4.91V82c0,2.71-2.2,4.91-4.91,4.91
		c-2.71,0-4.91-2.2-4.91-4.91V43.91z"/>
	<path class="st0" d="M294.6,43.91c0-2.71,2.19-4.91,4.91-4.91c2.71,0,4.91,2.19,4.91,4.91V82c0,2.71-2.2,4.91-4.91,4.91
		c-2.71,0-4.91-2.2-4.91-4.91V43.91z"/>
	<g>
		<path class="st0" d="M343.45,61.98c-0.92-2.15-2.18-4.02-3.79-5.61c-1.2-1.18-2.54-2.18-4.04-3c-0.5-0.28-1.02-0.53-1.56-0.76
			c-2.13-0.92-4.4-1.39-6.82-1.39c-2.41,0-4.69,0.46-6.82,1.39c-2.13,0.92-3.98,2.18-5.56,3.76c-1.58,1.58-2.83,3.45-3.75,5.61
			c-0.92,2.16-1.38,4.44-1.38,6.86c0,2.42,0.46,4.7,1.39,6.83c0.92,2.13,2.18,3.99,3.76,5.57c1.58,1.58,3.44,2.84,5.58,3.76
			c2.13,0.92,4.41,1.39,6.83,1.39c2.07,0,4-0.33,5.81-0.98c1.01-0.37,1.97-0.82,2.89-1.34c0.69,1.66,2.33,2.84,4.25,2.84
			c0.75,0,1.45-0.2,2.08-0.52c1.49-0.76,2.52-2.29,2.52-4.09V68.84C344.84,66.42,344.37,64.13,343.45,61.98z M335.63,71.52
			c-0.07,0.21-0.15,0.42-0.23,0.62c-0.46,1.04-1.07,1.95-1.84,2.72c-0.77,0.78-1.67,1.39-2.71,1.85c-1.03,0.46-2.15,0.69-3.34,0.69
			c-1.19,0-2.3-0.23-3.34-0.69c-1.03-0.46-1.94-1.08-2.71-1.85c-0.77-0.78-1.38-1.68-1.84-2.72c-0.46-1.04-0.68-2.14-0.68-3.31
			c0-1.2,0.23-2.32,0.68-3.36c0.45-1.04,1.07-1.95,1.84-2.72c0.77-0.78,1.67-1.39,2.71-1.85c1.03-0.46,2.15-0.69,3.34-0.69
			c1.19,0,2.3,0.23,3.34,0.69c1.03,0.46,1.94,1.08,2.71,1.85c0.77,0.78,1.38,1.68,1.84,2.72c0.09,0.2,0.16,0.41,0.23,0.62
			c0.29,0.86,0.45,1.77,0.45,2.73C336.08,69.77,335.92,70.66,335.63,71.52z"/>
	</g>
	<g>
		<path class="st0" d="M370.42,94.9c-0.4-1.91-1.98-3.45-3.91-3.78c-1.11-0.19-2.15,0-3.04,0.45c-0.91,0.47-1.59,1.27-2.04,2.19
			l-1.64,3.31l0.01,0.01c0,0-0.56,1.36-0.56,2.13c0,2.26,1.83,4.09,4.09,4.09c0.68,0,1.6-0.44,2.21-0.79
			c0.39-0.22,0.75-0.49,1.08-0.81l2.89-2.81C370.32,97.81,370.74,96.42,370.42,94.9z"/>
		<path class="st0" d="M237.85,100.47c0-2.78,2.2-4.97,4.97-4.97h1.1c2.13,0,3.62,1.1,4.52,2.58l12.01,19.56l12.07-19.63
			c1.03-1.68,2.45-2.52,4.45-2.52h1.1c2.78,0,4.97,2.2,4.97,4.97v35.89c0,2.78-2.2,4.97-4.97,4.97c-2.71,0-4.91-2.26-4.91-4.97
			v-22.53l-8.71,13.43c-1.03,1.55-2.32,2.52-4.13,2.52c-1.81,0-3.1-0.97-4.13-2.52l-8.59-13.23v22.47c0,2.71-2.19,4.84-4.91,4.84
			c-2.71,0-4.84-2.13-4.84-4.84V100.47z"/>
		<path class="st0" d="M331.43,110.87c0-2.71,2.2-4.91,4.91-4.91s4.91,2.2,4.91,4.91v1.55c1.42-3.36,3.74-6.46,6.65-6.46
			c3.03,0,4.78,2,4.78,4.78c0,2.58-1.68,4.13-3.68,4.58c-4.97,1.16-7.75,4.97-7.75,11.94v9.17c0,2.71-2.2,4.91-4.91,4.91
			s-4.91-2.2-4.91-4.91V110.87z"/>
		<path class="st0" d="M358.03,110.87c0-2.71,2.2-4.91,4.91-4.91c2.71,0,4.91,2.2,4.91,4.91v25.57c0,2.71-2.2,4.91-4.91,4.91
			c-2.71,0-4.91-2.2-4.91-4.91V110.87z"/>
		<g>
			<path class="st0" d="M323.4,116.71c-0.92-2.15-2.18-4.02-3.79-5.61c-1.2-1.18-2.54-2.18-4.04-3c-0.5-0.28-1.02-0.53-1.56-0.76
				c-2.13-0.92-4.4-1.39-6.82-1.39c-2.41,0-4.69,0.46-6.82,1.39c-2.13,0.92-3.98,2.18-5.56,3.76c-1.58,1.58-2.83,3.45-3.75,5.61
				c-0.92,2.16-1.38,4.44-1.38,6.86c0,2.42,0.46,4.7,1.39,6.83c0.92,2.13,2.18,3.99,3.76,5.57c1.58,1.58,3.44,2.84,5.58,3.76
				c2.13,0.92,4.41,1.39,6.83,1.39c2.07,0,4-0.33,5.81-0.98c1.01-0.37,1.97-0.82,2.89-1.34c0.69,1.66,2.33,2.84,4.25,2.84
				c0.75,0,1.45-0.2,2.08-0.52c1.49-0.76,2.52-2.29,2.52-4.09v-13.46C324.79,121.16,324.32,118.87,323.4,116.71z M315.58,126.25
				c-0.07,0.21-0.15,0.42-0.23,0.62c-0.46,1.04-1.07,1.95-1.84,2.72c-0.77,0.78-1.67,1.39-2.71,1.85c-1.03,0.46-2.15,0.69-3.34,0.69
				c-1.19,0-2.3-0.23-3.34-0.69c-1.03-0.46-1.94-1.08-2.71-1.85c-0.77-0.78-1.38-1.68-1.84-2.72c-0.46-1.04-0.68-2.14-0.68-3.31
				c0-1.2,0.23-2.32,0.68-3.36c0.45-1.04,1.07-1.95,1.84-2.72c0.77-0.78,1.67-1.39,2.71-1.85c1.03-0.46,2.15-0.69,3.34-0.69
				c1.19,0,2.3,0.23,3.34,0.69c1.03,0.46,1.94,1.08,2.71,1.85c0.77,0.78,1.38,1.68,1.84,2.72c0.09,0.2,0.16,0.41,0.23,0.62
				c0.29,0.86,0.45,1.77,0.45,2.73C316.03,124.5,315.87,125.4,315.58,126.25z"/>
		</g>
		<g>
			<path class="st0" d="M408.06,116.71c-0.92-2.15-2.18-4.02-3.79-5.61c-1.2-1.18-2.54-2.18-4.04-3c-0.5-0.28-1.02-0.53-1.56-0.76
				c-2.13-0.92-4.4-1.39-6.82-1.39c-2.41,0-4.69,0.46-6.82,1.39c-2.13,0.92-3.98,2.18-5.56,3.76c-1.58,1.58-2.83,3.45-3.75,5.61
				c-0.92,2.16-1.38,4.44-1.38,6.86c0,2.42,0.46,4.7,1.39,6.83c0.92,2.13,2.18,3.99,3.76,5.57c1.58,1.58,3.44,2.84,5.58,3.76
				c2.13,0.92,4.41,1.39,6.83,1.39c2.07,0,4-0.33,5.81-0.98c1.01-0.37,1.97-0.82,2.89-1.34c0.69,1.66,2.33,2.84,4.25,2.84
				c0.75,0,1.45-0.2,2.08-0.52c1.49-0.76,2.52-2.29,2.52-4.09v-13.46C409.44,121.16,408.98,118.87,408.06,116.71z M400.23,126.25
				c-0.07,0.21-0.15,0.42-0.23,0.62c-0.46,1.04-1.07,1.95-1.84,2.72c-0.77,0.78-1.67,1.39-2.71,1.85c-1.03,0.46-2.15,0.69-3.34,0.69
				c-1.19,0-2.3-0.23-3.34-0.69c-1.03-0.46-1.94-1.08-2.71-1.85c-0.77-0.78-1.38-1.68-1.84-2.72c-0.46-1.04-0.68-2.14-0.68-3.31
				c0-1.2,0.23-2.32,0.68-3.36c0.45-1.04,1.07-1.95,1.84-2.72c0.77-0.78,1.67-1.39,2.71-1.85c1.03-0.46,2.15-0.69,3.34-0.69
				c1.19,0,2.3,0.23,3.34,0.69c1.03,0.46,1.94,1.08,2.71,1.85c0.77,0.78,1.38,1.68,1.84,2.72c0.09,0.2,0.16,0.41,0.23,0.62
				c0.29,0.86,0.45,1.77,0.45,2.73C400.68,124.5,400.53,125.4,400.23,126.25z"/>
		</g>
	</g>
	<g>
		<path class="st1" d="M90.76,120.58L26.26,7.18c-3.78-6.76-12.32-9.18-19.08-5.4C0.42,5.56-1.99,14.1,1.78,20.86l64.34,113.1
			l0.01,0c0.05,0.1,0.1,0.2,0.16,0.31c3.78,6.76,12.32,9.18,19.08,5.4C92.12,135.88,94.54,127.34,90.76,120.58z"/>
		<path class="st2" d="M214.72,120.38l-45.38-81.66l0,0c-1.93-3.38-5.25-5.95-9.36-6.79c-1-0.21-2.01-0.3-2.99-0.28
			c-2.34-0.02-4.72,0.55-6.92,1.78c-3.69,2.06-6.08,5.54-6.88,9.38l0,0l-8.91,44.48l-27.08-48.46l-0.03,0.02
			c-3.83-6.61-12.27-8.94-18.96-5.2c-6.76,3.78-9.18,12.32-5.4,19.08c0.15,0.27,0.31,0.52,0.47,0.77l44.7,79.97
			c0.13,0.27,0.26,0.54,0.41,0.8c3.78,6.76,12.32,9.18,19.08,5.4c3.55-1.98,5.89-5.28,6.78-8.93l0,0l0.01-0.05
			c0.07-0.31,0.13-0.61,0.19-0.92l8.89-43.88l26.76,47.88l0.01,0c0.05,0.1,0.1,0.2,0.16,0.31c3.78,6.76,12.32,9.18,19.08,5.4
			C216.08,135.68,218.49,127.13,214.72,120.38z"/>
		<path class="st3" d="M97.88,32.13c-7.59-1.55-14.99,3.34-16.55,10.92c0,0.02-0.01,0.04-0.01,0.05l0,0l-16.53,81.51
			c-1.55,7.59,3.34,14.99,10.92,16.55c7.53,1.54,14.88-3.27,16.51-10.75l0,0l0.02-0.12c0-0.02,0.01-0.03,0.01-0.05
			c0-0.02,0.01-0.04,0.01-0.06l16.48-81.26l0,0c0.02-0.08,0.04-0.17,0.06-0.25C110.36,41.1,105.47,33.69,97.88,32.13z"/>
	</g>
</g>
</svg>
