<?xml version="1.0" encoding="utf-8"?>
<!-- Generator: Adobe Illustrator 16.0.0, SVG Export Plug-In . SVG Version: 6.00 Build 0)  -->
<!DOCTYPE svg PUBLIC "-//W3C//DTD SVG 1.1//EN" "http://www.w3.org/Graphics/SVG/1.1/DTD/svg11.dtd">
<svg version="1.1" id="Capa_1" xmlns="http://www.w3.org/2000/svg" xmlns:xlink="http://www.w3.org/1999/xlink" x="0px" y="0px"
	 width="24px" height="24px" viewBox="0 0 24 24" enable-background="new 0 0 24 24" xml:space="preserve">
<circle fill="#FFFFFF" stroke="#FFFFFF" stroke-miterlimit="10" cx="12.001" cy="10.25" r="9"/>
<g id="Capa_1_1_" display="none">
	<circle display="inline" fill="#9A7D22" cx="12" cy="10.4" r="10"/>
</g>
<g id="Capa_3">
	<path fill="#B5343A" d="M11.997,0.001L11.997,0.001c-5.66-0.085-10.315,4.434-10.4,10.093c0,0.044,0,0.089,0,0.133
		c0,3.126,1.311,5.527,3.563,7.753c2.972,2.929,5.813,5.599,5.813,5.599c0.311,0.3,0.736,0.45,1.167,0.412v-0.412l0,0V24
		c0.367-0.079,0.715-0.232,1.021-0.455c0,0,2.741-2.74,5.696-5.652c2.254-2.221,3.547-4.533,3.547-7.677
		C22.376,4.547,17.759-0.027,12.09,0C12.06,0,12.028,0,11.997,0.001z M11.997,19c-4.946,0.003-8.957-4.004-8.959-8.949
		c-0.003-4.945,4.003-8.956,8.948-8.959c4.944-0.002,8.956,4.003,8.958,8.949c0,0.003,0,0.007,0,0.011
		C20.939,14.995,16.936,19,11.991,19H11.997z"/>
</g>
<line fill="none" stroke="#B5343A" stroke-width="0.25" stroke-linecap="round" stroke-linejoin="round" stroke-miterlimit="10" x1="12.024" y1="3.053" x2="12.024" y2="6.784"/>
<path fill="#B5343A" d="M12.348,3.034c0,0,1.044,0.615,2.232-0.368c0,0,0.9,0.025,0.98,0.278c0.082,0.254,0,1.973,0,1.973
	s-0.722-0.573-1.59,0c0,0-0.746,0.531-1.625,0"/>
<rect x="6.772" y="6.883" fill="#B5343A" stroke="#B5343A" stroke-width="0.25" stroke-linecap="round" stroke-linejoin="round" stroke-miterlimit="10" width="10.4" height="8.232"/>
<line fill="none" stroke="#B5343A" stroke-width="0.5" stroke-linecap="round" stroke-linejoin="round" stroke-miterlimit="10" x1="5.472" y1="15.293" x2="18.473" y2="15.293"/>
<line fill="none" stroke="#B5343A" stroke-width="0.5" stroke-linecap="round" stroke-linejoin="round" stroke-miterlimit="10" x1="7.097" y1="6.931" x2="16.85" y2="6.931"/>
<g>
	<path fill="#FFFFFF" d="M11.852,14.08l-0.267,0.287c-0.144,0.156-0.134,0.398,0.021,0.543l0,0c0.071,0.066,0.165,0.103,0.262,0.103
		h0.014c0.102-0.004,0.198-0.048,0.267-0.123l0.262-0.288c0.149-0.151,0.147-0.395-0.004-0.545
		c-0.151-0.149-0.395-0.147-0.544,0.004c-0.005,0.006-0.011,0.011-0.016,0.017L11.852,14.08z"/>
	<path fill="#FFFFFF" d="M12.054,13.553c-0.01-0.212-0.19-0.377-0.402-0.367c-0.099,0.005-0.193,0.048-0.261,0.119l-0.603,0.636
		c-0.145,0.154-0.137,0.396,0.017,0.541c0.071,0.067,0.166,0.104,0.264,0.104h0.014c0.102-0.004,0.198-0.047,0.267-0.121
		l0.598-0.636C12.019,13.755,12.057,13.656,12.054,13.553z"/>
	<path fill="#FFFFFF" d="M11.268,13.145c-0.01-0.212-0.189-0.377-0.402-0.367c-0.1,0.005-0.193,0.048-0.262,0.119l-0.529,0.55
		c-0.145,0.154-0.137,0.396,0.017,0.541c0.071,0.067,0.166,0.104,0.264,0.104h0.014c0.101-0.004,0.197-0.047,0.267-0.121l0.529-0.55
		C11.235,13.347,11.272,13.247,11.268,13.145z"/>
	<path fill="#FFFFFF" d="M10.131,13.281c0.14-0.159,0.124-0.403-0.036-0.543c-0.153-0.134-0.384-0.126-0.527,0.02l-0.1,0.108
		c-0.145,0.154-0.137,0.396,0.017,0.541c0.071,0.067,0.166,0.104,0.264,0.104h0.014c0.102-0.004,0.198-0.048,0.267-0.123
		L10.131,13.281z"/>
	<path fill="#FFFFFF" d="M14.441,9.86c-0.016-0.029-0.051-0.043-0.082-0.03c-0.102,0.041-0.207,0.074-0.315,0.098
		c-0.172-0.015-0.335-0.085-0.464-0.2c-0.14-0.099-0.29-0.183-0.447-0.25c-0.206-0.115-0.448-0.145-0.675-0.081
		c-0.323,0.063-1.241,0.695-1.306,0.739l-0.784,0.578c-0.179,0.147-0.206,0.412-0.059,0.591c0.138,0.168,0.38,0.203,0.56,0.082
		l1.079-0.599l0,0c0.151-0.098,0.32-0.172,0.599,0.095c0.009,0.016,0.019,0.029,0.03,0.042l0.186,0.207
		c0.554,0.614,1.758,1.927,1.772,1.941c0.012,0.014,0.03,0.021,0.049,0.021l0,0c0.018,0,0.036-0.007,0.048-0.021l0.959-0.963
		c0.015-0.022,0.015-0.052,0-0.074L14.441,9.86z"/>
	<path fill="#FFFFFF" d="M16.99,11.604l-1.331-2.552c-0.021-0.04-0.069-0.056-0.109-0.035c-0.002,0.001-0.003,0.002-0.005,0.003
		l-0.823,0.464c-0.039,0.021-0.053,0.069-0.032,0.109l1.319,2.484c0.021,0.039,0.069,0.055,0.109,0.034l0.835-0.396
		c0.041-0.019,0.059-0.067,0.039-0.107C16.992,11.606,16.991,11.605,16.99,11.604z"/>
	<path fill="#FFFFFF" d="M9.024,9.371L8.157,8.997C8.116,8.979,8.068,8.998,8.05,9.039C8.049,9.04,8.048,9.042,8.048,9.044
		l-1.042,2.672c-0.017,0.042,0.004,0.089,0.045,0.105c0.001,0.001,0.002,0.001,0.003,0.001l0.868,0.307
		c0.042,0.016,0.088-0.005,0.104-0.046l1.042-2.615C9.08,9.429,9.062,9.388,9.024,9.371z"/>
	<path fill="#FFFFFF" d="M14.717,13.163c-0.041,0.015-0.073,0.049-0.086,0.091v0.014c0.029,0.158-0.075,0.309-0.233,0.337
		c-0.097,0.018-0.195-0.015-0.263-0.086l-0.928-0.949c-0.049-0.024-0.107-0.019-0.151,0.014c-0.039,0.043-0.055,0.102-0.041,0.158
		l0.835,0.877c0.104,0.122,0.089,0.305-0.032,0.409c-0.115,0.098-0.285,0.091-0.393-0.015l-0.893-0.928
		c-0.059-0.027-0.128-0.014-0.174,0.032c-0.034,0.05-0.042,0.112-0.021,0.169c0.017,0.019,0.385,0.427,0.464,0.499l0.246,0.251
		c0.109,0.116,0.104,0.3-0.014,0.409v0.001c-0.092,0.083-0.225,0.101-0.334,0.044l0,0l0,0c-0.07,0.023-0.118,0.089-0.119,0.162
		v0.017h0.015c0.25,0.13,0.558,0.032,0.688-0.219c0.034-0.066,0.054-0.14,0.057-0.215c0.231,0.161,0.55,0.105,0.711-0.126
		c0.057-0.081,0.089-0.177,0.092-0.275c0-0.014,0-0.028,0-0.042c0.262,0.105,0.559-0.021,0.665-0.281
		c0.034-0.085,0.045-0.178,0.031-0.269C14.823,13.189,14.771,13.155,14.717,13.163z"/>
	<path fill="#FFFFFF" d="M9.442,12.736C9.44,12.707,9.427,12.68,9.405,12.66l-0.75-0.673l0.847-2.106
		c0.159,0.064,0.327,0.105,0.499,0.121c0.335,0.015,0.664-0.091,0.928-0.297l0.074-0.047c0.201-0.128,0.455-0.144,0.67-0.042
		c0.049,0.037,0.119,0.026,0.156-0.022c0.037-0.05,0.026-0.119-0.023-0.156c-0.004-0.003-0.009-0.006-0.014-0.009
		c-0.289-0.145-0.631-0.129-0.905,0.042l-0.074,0.046c-0.229,0.183-0.515,0.276-0.807,0.263C9.827,9.756,9.652,9.705,9.488,9.628
		c-0.056-0.025-0.122,0-0.147,0.056c0,0.001,0,0.002-0.001,0.003l-0.928,2.28C8.395,12.01,8.406,12.059,8.44,12.09l0.807,0.724
		c0.046,0.041,0.116,0.037,0.157-0.009c0.02-0.021,0.03-0.051,0.028-0.08L9.442,12.736z"/>
</g>
</svg>
