<?xml version="1.0" encoding="utf-8"?>
<!-- Generator: Adobe Illustrator 16.0.0, SVG Export Plug-In . SVG Version: 6.00 Build 0)  -->
<!DOCTYPE svg PUBLIC "-//W3C//DTD SVG 1.1//EN" "http://www.w3.org/Graphics/SVG/1.1/DTD/svg11.dtd">
<svg version="1.1" id="Capa_1" xmlns="http://www.w3.org/2000/svg" xmlns:xlink="http://www.w3.org/1999/xlink" x="0px" y="0px"
	 width="24px" height="24px" viewBox="0 0 24 24" enable-background="new 0 0 24 24" xml:space="preserve">
<circle fill="#FFFFFF" stroke="#FFFFFF" stroke-miterlimit="10" cx="12.001" cy="10.25" r="9"/>
<g id="Capa_1_1_" display="none">
	<circle display="inline" fill="#9A7D22" cx="12" cy="10.4" r="10"/>
</g>
<g id="Capa_3">
	<path fill="#F39F7E" d="M11.997,0.001L11.997,0.001c-5.66-0.085-10.315,4.434-10.4,10.093c0,0.044,0,0.089,0,0.133
		c0,3.126,1.311,5.527,3.563,7.753c2.972,2.929,5.813,5.599,5.813,5.599c0.311,0.3,0.736,0.45,1.167,0.412v-0.412l0,0V24
		c0.367-0.079,0.715-0.232,1.021-0.455c0,0,2.741-2.74,5.696-5.652c2.254-2.221,3.547-4.533,3.547-7.677
		C22.376,4.547,17.759-0.027,12.09,0C12.06,0,12.028,0,11.997,0.001z M11.997,19c-4.946,0.003-8.957-4.004-8.959-8.949
		c-0.003-4.945,4.003-8.956,8.948-8.959c4.944-0.002,8.956,4.003,8.958,8.949c0,0.003,0,0.007,0,0.011
		C20.939,14.995,16.936,19,11.991,19H11.997z"/>
</g>
<g>
	<path fill="#F39F7E" d="M8.021,6.394v3.668c0,0.147,0.12,0.268,0.268,0.268h4.367c0.147-0.001,0.267-0.12,0.267-0.268
		c0-0.147-0.119-0.267-0.267-0.267h-1.322V8.242c-0.002-0.292-0.24-0.529-0.532-0.529H9.667c-0.293,0-0.53,0.236-0.532,0.529v1.553
		H8.541V6.394c0-0.151,0.123-0.273,0.273-0.273l0,0h6.363c0.15,0,0.273,0.122,0.273,0.273v3.401h-1.121
		c-0.147,0-0.267,0.12-0.267,0.268c0.001,0.148,0.119,0.267,0.267,0.268h1.388c0.147,0,0.268-0.12,0.268-0.268l0,0V6.394
		c0-0.446-0.362-0.808-0.808-0.808l0,0H8.829C8.382,5.586,8.021,5.948,8.021,6.394L8.021,6.394z M9.551,8.242
		c0-0.062,0.05-0.113,0.112-0.113c0.001,0,0.002,0,0.003,0h1.134c0.063-0.001,0.114,0.048,0.116,0.11c0,0.001,0,0.001,0,0.003v1.553
		H9.551V8.242z"/>
	<path fill="#F39F7E" d="M13.667,9.795h-0.03c-0.147,0-0.267,0.12-0.267,0.267c0,0.148,0.119,0.267,0.267,0.268l0,0h0.03
		c0.148-0.001,0.268-0.12,0.268-0.268C13.935,9.915,13.815,9.795,13.667,9.795z"/>
	<path fill="#F39F7E" d="M8.921,11.881c-0.466,0-0.843,0.377-0.843,0.843c0,0.466,0.377,0.844,0.844,0.844
		c0.46,0,0.836-0.37,0.843-0.831c0.006-0.466-0.366-0.85-0.832-0.855C8.929,11.881,8.925,11.881,8.921,11.881z M8.921,13.068
		c-0.184,0-0.333-0.149-0.333-0.332c0-0.184,0.149-0.333,0.333-0.333s0.333,0.149,0.333,0.333l0,0
		c-0.006,0.178-0.153,0.32-0.333,0.32V13.068z"/>
	<path fill="#F39F7E" d="M15.084,11.881c-0.465,0-0.844,0.377-0.844,0.843c0,0.466,0.379,0.844,0.844,0.844
		c0.462,0,0.837-0.37,0.844-0.831c0.006-0.466-0.365-0.85-0.832-0.855C15.093,11.881,15.088,11.881,15.084,11.881z M15.084,13.068
		c-0.184,0-0.333-0.149-0.333-0.332c0-0.184,0.149-0.333,0.333-0.333c0.185,0,0.333,0.149,0.333,0.333l0,0
		c-0.006,0.178-0.153,0.32-0.333,0.32V13.068z"/>
	<path fill="#F39F7E" d="M17.362,6.902h-0.264V5.31c-0.001-0.225-0.143-0.426-0.354-0.502c-1.526-0.497-3.125-0.735-4.729-0.708
		c-1.614-0.028-3.22,0.213-4.753,0.716C7.052,4.89,6.908,5.086,6.904,5.31v1.583H6.637c-0.351,0-0.636,0.284-0.636,0.635
		c0,0.003,0,0.006,0,0.01v1.458c0,0.351,0.285,0.635,0.636,0.635h0.267v4.292c0,0.476,0.386,0.861,0.862,0.861l0,0h0.047v0.838
		c0,0.373,0.304,0.677,0.678,0.677h0.853c0.374,0,0.677-0.304,0.677-0.677v-0.838h3.954v0.838c0.001,0.375,0.306,0.677,0.681,0.677
		h0.857c0.375,0,0.679-0.302,0.68-0.677v-0.838h0.045c0.477,0,0.862-0.385,0.864-0.861V9.631h0.262
		c0.351,0.002,0.637-0.281,0.639-0.632c0-0.001,0-0.002,0-0.003V7.538c0-0.352-0.285-0.636-0.635-0.636
		C17.364,6.902,17.363,6.902,17.362,6.902z M6.904,9.097H6.637c-0.056,0-0.102-0.045-0.102-0.101l0,0V7.538
		c0-0.057,0.046-0.102,0.102-0.102l0,0h0.267V9.097z M9.494,15.632c-0.001,0.077-0.064,0.141-0.143,0.142H8.49
		c-0.079,0-0.143-0.063-0.143-0.142v-0.847h1.146V15.632z M15.657,15.632c-0.001,0.079-0.065,0.144-0.146,0.142h-0.857
		c-0.08,0.002-0.145-0.063-0.146-0.142v-0.847h1.149V15.632z M16.566,13.924c-0.002,0.182-0.148,0.326-0.33,0.326H7.766
		c-0.18,0-0.327-0.146-0.327-0.326V5.31c1.478-0.478,3.024-0.705,4.578-0.674c1.543-0.027,3.08,0.2,4.55,0.674V13.924z
		 M17.457,8.996c-0.001,0.057-0.047,0.101-0.103,0.101h-0.266V7.437h0.273c0.057,0,0.102,0.045,0.104,0.102L17.457,8.996z"/>
</g>
</svg>
