<?xml version="1.0" encoding="utf-8"?>
<!-- Generator: Adobe Illustrator 23.1.0, SVG Export Plug-In . SVG Version: 6.00 Build 0)  -->
<svg version="1.1" id="Capa_1" xmlns="http://www.w3.org/2000/svg" xmlns:xlink="http://www.w3.org/1999/xlink" x="0px" y="0px"
	 viewBox="0 0 24 24" style="enable-background:new 0 0 24 24;" xml:space="preserve">
<style type="text/css">
	.st0{fill:#FFFFFF;stroke:#FFFFFF;stroke-miterlimit:10;}
	.st1{display:none;}
	.st2{display:inline;fill:#9A7D22;}
	.st3{fill:#B5343A;}
	.st4{fill:none;stroke:#B5343A;stroke-width:0.25;stroke-linecap:round;stroke-linejoin:round;stroke-miterlimit:10;}
	.st5{fill:#B5343A;stroke:#B5343A;stroke-width:0.25;stroke-linecap:round;stroke-linejoin:round;stroke-miterlimit:10;}
	.st6{fill:none;stroke:#B5343A;stroke-width:0.5;stroke-linecap:round;stroke-linejoin:round;stroke-miterlimit:10;}
	.st7{fill:#FFFFFF;}
</style>
<circle class="st0" cx="12" cy="10.2" r="9"/>
<g id="Capa_1_1_" class="st1">
	<circle class="st2" cx="12" cy="10.4" r="10"/>
</g>
<g id="Capa_3">
	<path class="st3" d="M12,0L12,0C6.3-0.1,1.7,4.4,1.6,10.1c0,0,0,0.1,0,0.1c0,3.1,1.3,5.5,3.6,7.8c3,2.9,5.8,5.6,5.8,5.6
		c0.3,0.3,0.7,0.5,1.2,0.4v-0.4l0,0V24c0.4-0.1,0.7-0.2,1-0.5c0,0,2.7-2.7,5.7-5.7c2.3-2.2,3.5-4.5,3.5-7.7C22.4,4.5,17.8,0,12,0
		C12.1,0,12,0,12,0z M12,19c-4.9,0-9-4-9-8.9c0-4.9,4-9,8.9-9c4.9,0,9,4,9,8.9c0,0,0,0,0,0C20.9,15,16.9,19,12,19L12,19z"/>
</g>
<line class="st4" x1="12" y1="3.1" x2="12" y2="6.8"/>
<path class="st3" d="M12.3,3c0,0,1,0.6,2.2-0.4c0,0,0.9,0,1,0.3c0.1,0.3,0,2,0,2s-0.7-0.6-1.6,0c0,0-0.7,0.5-1.6,0"/>
<rect x="6.8" y="6.9" class="st5" width="10.4" height="8.2"/>
<line class="st6" x1="5.5" y1="15.3" x2="18.5" y2="15.3"/>
<line class="st6" x1="7.1" y1="6.9" x2="16.9" y2="6.9"/>
<g>
	<path class="st7" d="M10.3,8.5c0.5,0,0.8-0.4,0.8-0.8c0-0.5-0.4-0.8-0.8-0.8c-0.5,0-0.8,0.4-0.8,0.8c0,0,0,0,0,0
		C9.5,8.2,9.8,8.5,10.3,8.5z"/>
	<path class="st7" d="M10.9,12.1c-0.3,0-0.5-0.3-0.5-0.6c0-0.1,0.2-1.6,1-2.3c-0.3-0.3-0.7-0.5-1.1-0.6h-0.1c-1.6,0-1.8,2.5-1.8,2.6
		c0,0.1,0.1,0.3,0.2,0.3v3.6c0,0.1,0.1,0.2,0.2,0.2c0.1,0,0.2-0.1,0.2-0.2c0,0,0,0,0,0v-3.6c0.1-0.1,0.2-0.1,0.2-0.3
		c0.1-0.5,0.2-0.9,0.4-1.4v2.4l0,0V15c0,0.2,0.2,0.3,0.3,0.3s0.3-0.2,0.3-0.3v-2.6h0.3V15c0,0.2,0.1,0.4,0.3,0.4
		c0.2,0,0.4-0.1,0.4-0.3c0,0,0,0,0-0.1v-1.7c0,0,0,0,0,0C11,13.2,11,13.1,11,13l0.1-0.3v-0.7C11.1,12.1,11,12.1,10.9,12.1L10.9,12.1
		z"/>
	<path class="st7" d="M12.4,8.9c0.4,0,0.8-0.4,0.8-0.8s-0.4-0.8-0.8-0.8s-0.8,0.4-0.8,0.8S12,8.9,12.4,8.9
		C12.4,8.9,12.4,8.9,12.4,8.9z"/>
	<path class="st7" d="M13.3,13.2c-0.2,0-0.4-0.2-0.4-0.4c0-0.4,0.1-0.7,0.3-1.1l-0.1-0.4l0-1c0.1,0.3,0.3,0.6,0.3,1
		c0.1-0.1,0.2-0.2,0.4-0.3c-0.3-0.2-0.3-0.7-0.1-1c-0.3-0.5-0.7-0.9-1.3-1h-0.1c-1.5,0-1.7,2.4-1.7,2.5c0,0.2,0.1,0.3,0.3,0.4h0
		c0.2,0,0.3-0.1,0.3-0.3c0.1-0.5,0.2-0.9,0.4-1.3l0.1,1L11.2,13c0,0.1,0,0.2,0.1,0.3c0,0,0,0,0,0l0.3,0V15c0,0.2,0.1,0.3,0.3,0.3
		c0.2,0,0.3-0.1,0.3-0.3c0,0,0,0,0,0v-1.6c0.1,0,0.2,0,0.3,0V15c0,0.2,0.1,0.3,0.3,0.3c0.2,0,0.3-0.1,0.3-0.3c0,0,0,0,0,0v-1.7
		l0.2,0l0,0l0.1-0.2C13.5,13.2,13.4,13.2,13.3,13.2L13.3,13.2z"/>
	<path class="st7" d="M14.4,11L14.4,11c-1.1,0-1.2,1.6-1.2,1.7c0,0.1,0.1,0.2,0.2,0.2h0c0.1,0,0.2-0.1,0.2-0.2
		c0-0.3,0.1-0.6,0.3-0.9l0,0.7l-0.3,1.2c0,0.1,0,0.2,0.1,0.2c0,0,0,0,0,0l0.2,0v1.2c0,0.1,0.1,0.2,0.2,0.2c0.1,0,0.2-0.1,0.2-0.2
		c0,0,0,0,0,0V14c0.1,0,0.1,0,0.2,0v1.1c0,0.1,0.1,0.2,0.2,0.2c0.1,0,0.2-0.1,0.2-0.2c0,0,0,0,0,0V14l0.2,0c0.1,0,0.1-0.1,0.1-0.2
		c0,0,0,0,0,0l-0.3-1.3l0-0.7c0.1,0.3,0.2,0.6,0.2,0.9c0,0.1,0.1,0.2,0.2,0.2h0c0.1,0,0.2-0.1,0.2-0.2C15.6,12.7,15.4,11.1,14.4,11z
		"/>
	<path class="st7" d="M14.4,10.9c0.3,0,0.5-0.2,0.5-0.5c0-0.3-0.2-0.5-0.5-0.5c-0.3,0-0.5,0.2-0.5,0.5c0,0,0,0,0,0
		C13.8,10.7,14.1,10.9,14.4,10.9z"/>
</g>
</svg>
