<?xml version="1.0" encoding="utf-8"?>
<!-- Generator: Adobe Illustrator 23.1.0, SVG Export Plug-In . SVG Version: 6.00 Build 0)  -->
<svg version="1.1" id="Capa_1" xmlns="http://www.w3.org/2000/svg" xmlns:xlink="http://www.w3.org/1999/xlink" x="0px" y="0px"
	 viewBox="0 0 24 24" style="enable-background:new 0 0 24 24;" xml:space="preserve">
<style type="text/css">
	.st0{fill:#FFFFFF;}
	.st1{fill:none;stroke:#000000;stroke-width:0.5;stroke-miterlimit:10;}
	.st2{fill:none;stroke:#000000;stroke-width:0.5;stroke-miterlimit:10;stroke-dasharray:4.0615,1.0154;}
	.st3{fill:none;stroke:#000000;stroke-width:0.5;stroke-miterlimit:10;stroke-dasharray:1.0154,1.0154,4.0615,1.0154;}
</style>
<g id="Capa_3">
	<g>
		<rect x="4.9" y="4.9" class="st0" width="14.2" height="14.2"/>
		<g>
			<polyline class="st1" points="4.9,5.4 4.9,4.9 5.4,4.9 			"/>
			<line class="st2" x1="6.4" y1="4.9" x2="11" y2="4.9"/>
			<line class="st3" x1="11.5" y1="4.9" x2="18.1" y2="4.9"/>
			<polyline class="st1" points="18.6,4.9 19.1,4.9 19.1,5.4 			"/>
			<line class="st2" x1="19.1" y1="6.4" x2="19.1" y2="11"/>
			<line class="st3" x1="19.1" y1="11.5" x2="19.1" y2="18.1"/>
			<polyline class="st1" points="19.1,18.6 19.1,19.1 18.6,19.1 			"/>
			<line class="st2" x1="17.6" y1="19.1" x2="13" y2="19.1"/>
			<line class="st3" x1="12.5" y1="19.1" x2="5.9" y2="19.1"/>
			<polyline class="st1" points="5.4,19.1 4.9,19.1 4.9,18.6 			"/>
			<line class="st2" x1="4.9" y1="17.6" x2="4.9" y2="13"/>
			<line class="st3" x1="4.9" y1="12.5" x2="4.9" y2="5.9"/>
		</g>
	</g>
</g>
</svg>
